<?xml version="1.0" encoding="UTF-8" standalone="no"?>
<svg
   xmlns:dc="http://purl.org/dc/elements/1.1/"
   xmlns:cc="http://creativecommons.org/ns#"
   xmlns:rdf="http://www.w3.org/1999/02/22-rdf-syntax-ns#"
   xmlns:svg="http://www.w3.org/2000/svg"
   xmlns="http://www.w3.org/2000/svg"
   height="80"
   width="500"
   viewBox="0 0 500 80"
   version="1.1"
   id="svg4532">
  <defs
     id="defs4526" />
  <metadata
     id="metadata4529">
    <rdf:RDF>
      <cc:Work
         rdf:about="">
        <dc:format>image/svg+xml</dc:format>
        <dc:type
           rdf:resource="http://purl.org/dc/dcmitype/StillImage" />
        <dc:title></dc:title>
      </cc:Work>
    </rdf:RDF>
  </metadata>
  <style
     id="style4">
  #buoy {
   animation: rocking 9s linear alternate infinite;
   transform-box: fill-box;
   transform-origin: center;
   }

   #wave-1 {
   animation: wave-1-motion 18s ease-out alternate infinite;
   }

   #wave-2 {
   animation: wave-1-motion 9s ease-out alternate-reverse infinite;
   }

   @keyframes rocking {
   from {transform: rotate(10deg);}
   to {transform: rotate(-10deg);}
   }

   @keyframes wave-1-motion {
   from {transform: translateX(0px;);}
   to {transform: translateX(50px);}
   }
  </style>
  <g
     id="layer1"
     transform="translate(0,-1042.5197)">
    <rect
       style="opacity:1;fill:#cfd9ff;fill-opacity:1;stroke:none;stroke-width:1.01699996;stroke-linejoin:miter;stroke-miterlimit:4;stroke-dasharray:none;stroke-opacity:1"
       id="sky"
       width="500"
       height="80"
       x="0"
       y="1042.5197" />
    <path
       id="buoy"
       style="fill:#000000;fill-opacity:1;stroke:#91a2e8;stroke-width:5;stroke-linecap:round;stroke-linejoin:round;stroke-miterlimit:4;stroke-dasharray:none;stroke-opacity:1"
       d="m 428.30437,1075.5067 h 32.28515 m -15.79381,0.2229 v -21.0859 m -8.42004,-0.3073 h 15.84363 m -19.53053,21.1703 8.86846,-21.1703 m 15.3454,21.1703 -9.06773,-21.1703" />
    <path
       style="opacity:1;fill:#91a2e8;fill-opacity:1;stroke:none;stroke-width:1.11221683;stroke-linejoin:miter;stroke-miterlimit:4;stroke-dasharray:none;stroke-opacity:1"
       d="m 521.50976,1069.8147 c -6.34203,0 -12.37134,1.4341 -14.9082,3.3672 -2.65469,1.8252 -8.19141,3.0019 -14.32422,3.0019 -6.12845,0 -11.66374,-1.1779 -14.31641,-3.0019 -2.53505,-1.9317 -8.47498,-3.3041 -14.8125,-3.3067 -6.34203,0 -12.28932,1.3736 -14.82617,3.3067 -2.65457,1.8253 -8.19511,3.0019 -14.32813,3.0019 -6.12846,0 -11.66373,-1.1779 -14.3164,-3.0019 -2.53506,-1.9317 -8.47498,-3.3041 -14.8125,-3.3067 -6.34203,0 -12.27369,1.3736 -14.81055,3.3067 -2.6173,1.8612 -8.21887,3.0644 -14.42187,3.0644 -6.19857,0 -11.79872,-1.2045 -14.41407,-3.0644 -2.53504,-1.9317 -8.37732,-3.2434 -14.71484,-3.2461 -6.34204,0 -12.20533,1.313 -14.74219,3.2461 -2.65468,1.8252 -8.19531,3.0019 -14.32812,3.0019 -6.12843,0 -11.66179,-1.1779 -14.31446,-3.0019 -2.53505,-1.9317 -8.47498,-3.3041 -14.8125,-3.3067 -6.34204,0 -12.27368,1.3736 -14.81054,3.3067 -2.61731,1.8612 -8.22279,3.0644 -14.42578,3.0644 -6.19858,0 -11.7948,-1.2045 -14.41016,-3.0644 -2.53505,-1.9317 -8.38125,-3.2434 -14.71875,-3.2461 -6.34206,0 -12.18969,1.313 -14.72656,3.2461 -2.61731,1.8612 -8.22084,3.0644 -14.42383,3.0644 -6.19858,0 -11.7987,-1.2045 -14.41406,-3.0644 -2.53505,-1.9317 -8.37733,-3.2434 -14.71485,-3.2461 -6.34203,0 -12.17799,1.313 -14.71484,3.2461 -2.57863,1.8966 -8.24983,3.123 -14.52149,3.123 -6.26719,0 -11.92713,-1.2277 -14.5039,-3.123 h -0.0195 c -2.53504,-1.9318 -8.26405,-3.181 -14.60157,-3.1836 -6.34203,0 -12.08032,1.2505 -14.61718,3.1836 h -0.041 c -2.65471,1.8252 -8.19531,3.0019 -14.32812,3.0019 -6.12845,0 -11.65984,-1.1779 -14.3125,-3.0019 -2.53506,-1.9317 -8.47499,-3.3041 -14.8125,-3.3067 -6.34204,0 -12.27369,1.3736 -14.81055,3.3067 -2.61723,1.8613 -8.22264,3.0644 -14.42578,3.0644 -6.19872,0 -11.79882,-1.2044 -14.41406,-3.0644 -2.53505,-1.9317 -8.37733,-3.2434 -14.71484,-3.2461 -6.34204,0 -12.19166,1.313 -14.72852,3.2461 -2.61731,1.8612 -8.222785,3.0644 -14.425782,3.0644 -6.198576,0 -11.794798,-1.2045 -14.410156,-3.0644 -2.53505,-1.9317 -8.377326,-3.2434 -14.714844,-3.2461 -6.342032,0 -12.177984,1.313 -14.714844,3.2461 -2.578655,1.8966 -8.249829,3.123 -14.521484,3.123 -0.147293,0 -0.288957,-0.01 -0.435547,-0.01 v 42.0684 H 560.87304 v -43.4902 c -2.80876,0.7903 -6.40215,1.2519 -10.23438,1.2519 -6.05961,0 -11.53352,-1.1545 -14.2207,-2.9433 -2.53505,-1.9317 -8.57068,-3.3645 -14.9082,-3.3672 z"
       id="wave-2" />
    <path
       style="opacity:1;fill:#4560cb;fill-opacity:1;stroke:none;stroke-width:1.11221683;stroke-linejoin:miter;stroke-miterlimit:4;stroke-dasharray:none;stroke-opacity:1"
       d="m 551.03447,1073.9712 c -6.34203,0 -12.37134,1.4341 -14.9082,3.3672 -2.65469,1.8252 -8.19141,3.002 -14.32422,3.002 -6.12845,0 -11.66374,-1.178 -14.31641,-3.002 -2.53505,-1.9317 -8.47498,-3.304 -14.8125,-3.3066 -6.34203,0 -12.28932,1.3735 -14.82617,3.3066 -2.65457,1.8253 -8.19511,3.002 -14.32813,3.002 -6.12846,0 -11.66373,-1.178 -14.3164,-3.002 -2.53506,-1.9317 -8.47498,-3.304 -14.8125,-3.3066 -6.34203,0 -12.27369,1.3735 -14.81055,3.3066 -2.6173,1.8612 -8.21887,3.0645 -14.42187,3.0645 -6.19857,0 -11.79872,-1.2046 -14.41407,-3.0645 -2.53504,-1.9317 -8.37732,-3.2434 -14.71484,-3.2461 -6.34204,0 -12.20533,1.313 -14.74219,3.2461 -2.65468,1.8252 -8.19531,3.002 -14.32812,3.002 -6.12843,0 -11.66179,-1.178 -14.31446,-3.002 -2.53505,-1.9317 -8.47498,-3.304 -14.8125,-3.3066 -6.34204,0 -12.27368,1.3735 -14.81054,3.3066 -2.61731,1.8612 -8.22279,3.0645 -14.42578,3.0645 -6.19858,0 -11.7948,-1.2046 -14.41016,-3.0645 -2.53505,-1.9317 -8.38125,-3.2434 -14.71875,-3.2461 -6.34206,0 -12.18969,1.313 -14.72656,3.2461 -2.61731,1.8612 -8.22084,3.0645 -14.42383,3.0645 -6.19858,0 -11.7987,-1.2046 -14.41406,-3.0645 -2.53505,-1.9317 -8.37733,-3.2434 -14.71485,-3.2461 -6.34203,0 -12.17799,1.313 -14.71484,3.2461 -2.57863,1.8966 -8.24983,3.123 -14.52149,3.123 -6.26719,0 -11.92713,-1.2277 -14.5039,-3.123 h -0.0195 c -2.53504,-1.9318 -8.26405,-3.181 -14.60157,-3.1836 -6.34203,0 -12.08032,1.2505 -14.61718,3.1836 h -0.041 c -2.65471,1.8252 -8.19531,3.002 -14.32812,3.002 -6.12845,0 -11.65984,-1.178 -14.312506,-3.002 -2.535054,-1.9317 -8.474988,-3.304 -14.8125,-3.3066 -6.342037,0 -12.273686,1.3735 -14.810547,3.3066 -2.617229,1.8613 -8.22264,3.0645 -14.425781,3.0645 -6.198716,0 -11.798817,-1.2045 -14.414062,-3.0645 -2.535046,-1.9317 -8.377325,-3.2434 -14.714844,-3.2461 -6.342037,0 -12.191656,1.313 -14.728516,3.2461 -2.6173131,1.8612 -8.2227844,3.0645 -14.4257814,3.0645 -6.198576,0 -11.7947976,-1.2046 -14.4101556,-3.0645 -2.53505,-1.9317 -8.377326,-3.2434 -14.714844,-3.2461 -6.342032,0 -12.177984,1.313 -14.714844,3.2461 -2.578655,1.8966 -8.249829,3.123 -14.521484,3.123 -0.147293,0 -0.288957,-0.01 -0.435547,-0.01 v 42.0683 H 590.39775 v -43.4902 c -2.80876,0.7903 -6.40215,1.252 -10.23438,1.252 -6.05961,0 -11.53352,-1.1546 -14.2207,-2.9434 -2.53505,-1.9317 -8.57068,-3.3645 -14.9082,-3.3672 z"
       id="wave-1" />
  </g>
</svg>
