<?xml version="1.0" encoding="UTF-8" standalone="no"?>
<svg
   xmlns:dc="http://purl.org/dc/elements/1.1/"
   xmlns:cc="http://creativecommons.org/ns#"
   xmlns:rdf="http://www.w3.org/1999/02/22-rdf-syntax-ns#"
   xmlns:svg="http://www.w3.org/2000/svg"
   xmlns="http://www.w3.org/2000/svg"
   id="svg8"
   version="1.1"
   viewBox="0 0 100 50.000002"
   height="50"
   width="400">
  <defs
     id="defs2" />
   <style>
   #fish {
      transform: rotate(0deg) rotateY(0deg);
      perspective: 100px;
      transform-box: fill-box;
      transform-origin: center;
      animation: fish-swim 8s ease-in infinite;
      background-color: red;
      animation-direction: reverse;
   }

   #fish-bowl {
    animation: fish-motion 8s ease-in-out infinite;
   }

   @keyframes fish-swim {
      0% {transform: rotate(0deg) rotateY(15deg);}
      10% {transform: rotate(5deg) rotateY(-15deg);;}
      20% {transform: rotate(-5deg) rotateY(15deg);;}
      30% {transform: rotate(5deg) rotateY(-15deg);;}
      40% {transform: rotate(-5deg) rotateY(15deg);;}
      45% {transform: rotate(-5deg) rotateY(15deg);;}
      50% {transform: rotate(5deg) rotateY(195deg);;}
      60% {transform: rotate(-5deg) rotateY(165deg);;}
      70% {transform: rotate(5deg) rotateY(195deg);}
      80% {transform: rotate(-5deg) rotateY(165deg);;}
      90% {transform: rotate(5deg) rotateY(195deg);;}
      95% {transform: rotate(5deg) rotateY(195deg);;}
      100% {transform: rotate(-5deg) rotateY(-15deg);;}
   }

   @keyframes fish-motion {
      0% {transform: translate(150px);}
      50% {transform: translate(-150px);}
      100% {transform: translate(150px);}
   }
   </style>
  <g
     transform="translate(0,-1072.5197)"
     id="layer1">
     <g id="fish-bowl">
      <g
         id="fish">
         <g
            id="g856">
         <path
            id="path834"
            d="m 15.25,1100.5197 4.416407,-7.9637 15.396093,0.8387 6.347441,-8.9262 c 0,0 3.277559,1.1762 5.152559,0.8637 1.875,-0.3125 8.125,-3.1875 8.125,-3.1875 l 23.105393,4.1862 6.457107,3.7513 5.3125,8.25 -5.125,10.875 -6.508883,1.8536 -13.678617,1.2089 c 0,0 -11.019999,-1.9868 -14.875,-1.8125 l -3.855001,0.1743 L 37,1106.9572 l -6.875,-2.125 c 0,0 -4.842438,0.1757 -7.983719,1.5566 C 19,1107.7697 15.25,1100.5197 15.25,1100.5197 Z"
            style="fill:#ffffff;stroke:#000000;stroke-width:1px;stroke-linecap:butt;stroke-linejoin:miter;stroke-opacity:1" />
         <path
            id="path826"
            d="m 19.666407,1092.556 -8.79464,-1.6793 c 0,0 -6.6291263,3.6681 -3.7123108,11.6672 2.9168158,7.9992 8.6178638,7.0711 8.6178638,7.0711 l 6.363961,-3.2262 c 0,0 2.12132,-3.8449 1.237437,-8.1317 -0.839689,-4.0658 -3.712311,-5.7011 -3.712311,-5.7011 z"
            style="fill:#ff7f2a;stroke:#000000;stroke-width:1px;stroke-linecap:round;stroke-linejoin:round;stroke-opacity:1" />
         <path
            id="path828"
            d="m 45.519999,1110.6315 c 0,0 2.12132,-0.442 0.662913,-13.4793 -1.149049,-11.5346 -4.772971,-12.6837 -4.772971,-12.6837 0,0 -5.08233,-2.5191 -9.324971,-0.221 -4.24264,2.2981 -4.684582,5.1708 -4.684582,5.1708 0,0 -1.188526,2.9941 -0.132583,10.253 0.771162,5.3012 2.651651,8.9714 2.651651,8.9714 0,0 1.17588,3.8115 7.026873,4.0659 4.065864,0.1768 8.57367,-2.0771 8.57367,-2.0771 z"
            style="fill:#ff7f2a;stroke:#000000;stroke-width:1px;stroke-linecap:round;stroke-linejoin:round;stroke-opacity:1" />
         <path
            id="path830"
            d="m 65.25,1095.2072 c 0,0 -9.625,-1.6875 -11.9375,-5.875 -2.3125,-4.1875 -1.25,-6.5625 -1.25,-6.5625 0,0 1.33527,-5.6742 7.234835,-5.6598 6.855735,0.017 9.140165,5.5348 9.140165,5.5348 0,0 8,2.6875 9.5625,3.8125 1.5625,1.125 0.4375,2.25 0.4375,2.25 0,0 -6,4.6875 -5.1875,10.3125 0.8125,5.625 5.125,10.3125 5.125,10.3125 0,0 2,1.4375 -0.5,1.75 0,0 -10.4375,1.75 -15.1875,5.9375 -5.08493,4.0481 -9.331357,-2.0723 -9.0625,-5.9375 0.4375,-4.6875 6.0625,-4.0625 6.0625,-4.0625 0,0 -5,-3.75 -3.5,-7.875 1.5,-4.125 9.0625,-3.9375 9.0625,-3.9375 z"
            style="fill:#ff7f2a;stroke:#000000;stroke-width:1px;stroke-linecap:round;stroke-linejoin:round;stroke-opacity:1" />
         <path
            id="path832"
            d="m 84.25,1090.0822 c 0,0 9.125,3.625 9.5625,9.8125 0.4375,6.1875 -9.375,9.3125 -9.375,9.3125 0,0 -5.8125,-2 -5,-10.4375 0.8125,-8.4375 4.8125,-8.6875 4.8125,-8.6875 z"
            style="fill:#ff7f2a;stroke:#000000;stroke-width:1px;stroke-linecap:round;stroke-linejoin:round;stroke-opacity:1" />
         <circle
            r="1.5"
            cy="1097.4174"
            cx="86.090248"
            id="path836"
            style="opacity:1;fill:#000000;fill-opacity:1;stroke:none;stroke-width:5;stroke-linecap:round;stroke-linejoin:round;stroke-miterlimit:4;stroke-dasharray:none;stroke-opacity:1" />
         <path
            id="path838"
            d="m 93.220678,1102.5364 c 0,0 -3.152952,2.0847 -6.644291,-0.037"
            style="fill:none;stroke:#000000;stroke-width:1.00157475;stroke-linecap:round;stroke-linejoin:round;stroke-miterlimit:4;stroke-dasharray:none;stroke-opacity:1" />
         </g>
      </g>
   </g>
  </g>
</svg>
