<?xml version="1.0" encoding="UTF-8" standalone="no"?>
<svg
   xmlns:dc="http://purl.org/dc/elements/1.1/"
   xmlns:cc="http://creativecommons.org/ns#"
   xmlns:rdf="http://www.w3.org/1999/02/22-rdf-syntax-ns#"
   xmlns:svg="http://www.w3.org/2000/svg"
   xmlns="http://www.w3.org/2000/svg"
   id="svg4"
   version="1.1"
   height="300"
   width="3000"
   viewBox="0 0 3000 300">
  <metadata
     id="metadata10">
    <rdf:RDF>
      <cc:Work
         rdf:about="">
        <dc:format>image/svg+xml</dc:format>
        <dc:type
           rdf:resource="http://purl.org/dc/dcmitype/StillImage" />
        <dc:title></dc:title>
      </cc:Work>
    </rdf:RDF>
  </metadata>
  <style>
   @keyframes play9 {
   0% {
      background-position: 0px 0px;
   }
   100% {
      background-position: -2700px 0px;
   }
   }
   .shapeshifter {
   animation-duration: 1500ms;
   animation-timing-function: steps(9);
   width: 300px;
   height: 300px;
   background-repeat: no-repeat;
   animation-iteration-count: infinite;
   animation-direction: alternate;
   animation-name: play9;
   }
  </style>
  <defs
     id="defs8" />

<g class='shapeshifter'>
  <path
     id="path2"
     fill="#005500"
     d="M27.406 25.378c-5.072.056-8.151 9.572-8.151 9.572S4.759 58.637 3.345 81.971c-1.414 23.335 6.717 32.528 6.717 32.528s26.162 25.809 27.93 52.679c1.768 26.87-21.566 39.599-21.566 39.599s9.736 24.435 7.969 47.416C22.627 277.174 41.719 300 41.719 300H59.75s-19.092-22.826-17.324-45.807c1.768-22.981-7.969-47.416-7.969-47.416s23.334-12.729 21.566-39.599c-1.767-26.87-27.93-52.679-27.93-52.679s-8.131-9.193-6.717-32.528C22.791 58.637 37.287 34.95 37.287 34.95c.401-7.799-3.153-8.076-8.84-9.451-.356-.086-.703-.125-1.041-.121zM327.739 25.623c-5.072.056-8.151 9.572-8.151 9.572s-14.496 23.687-15.91 47.021c-1.414 23.335 6.717 32.528 6.717 32.528s26.106 25.681 27.874 52.551c1.768 26.87-21.566 39.599-21.566 39.599s9.459 24.318 7.692 47.299C322.627 277.174 341.719 300 341.719 300h18.031s-19.092-22.826-17.324-45.807c1.768-22.981-7.692-47.299-7.692-47.299s23.334-12.729 21.566-39.599c-1.767-26.87-27.874-52.551-27.874-52.551s-8.131-9.193-6.717-32.528c1.415-23.334 15.911-47.021 15.911-47.021.401-7.799-3.153-8.076-8.84-9.451-.356-.086-.703-.125-1.041-.121zM628.969 26.527c-5.072.056-8.151 9.572-8.151 9.572s-14.496 23.687-15.91 47.021c-1.414 23.335 6.717 32.528 6.717 32.528s25.897 25.209 27.665 52.079c1.768 26.87-21.566 39.599-21.566 39.599s8.438 23.886 6.671 46.867C622.627 277.174 641.719 300 641.719 300h18.031s-19.092-22.826-17.324-45.807c1.768-22.981-6.671-46.867-6.671-46.867s23.334-12.729 21.566-39.599c-1.767-26.87-27.665-52.079-27.665-52.079s-8.131-9.193-6.717-32.528c1.415-23.334 15.911-47.021 15.911-47.021.401-7.799-3.153-8.076-8.84-9.451-.356-.086-.703-.125-1.041-.121zM931.599 28.461c-5.072.057-8.151 9.573-8.151 9.573s-14.496 23.687-15.91 47.021c-1.414 23.335 6.717 32.528 6.717 32.528s25.452 24.198 27.22 51.068c1.768 26.87-21.566 39.599-21.566 39.599s6.253 22.962 4.486 45.943C922.627 277.174 941.719 300 941.719 300h18.031s-19.092-22.826-17.324-45.807c1.768-22.981-4.486-45.943-4.486-45.943s23.334-12.729 21.566-39.599c-1.767-26.87-27.22-51.068-27.22-51.068s-8.131-9.193-6.717-32.528c1.415-23.334 15.911-47.021 15.911-47.021.401-7.8-3.153-8.076-8.84-9.451-.356-.086-.703-.125-1.041-.122zM1236.11 31.779c-5.072.056-8.151 9.572-8.151 9.572s-14.496 23.687-15.91 47.021c-1.414 23.335 6.717 32.528 6.717 32.528s24.687 22.467 26.455 49.337c1.768 26.87-21.566 39.599-21.566 39.599s2.507 21.376.74 44.357c-1.768 22.981 17.324 45.807 17.324 45.807h18.031s-19.092-22.826-17.324-45.807c1.768-22.981-.74-44.357-.74-44.357s23.334-12.729 21.566-39.599c-1.767-26.87-26.455-49.337-26.455-49.337s-8.131-9.193-6.717-32.528c1.415-23.334 15.911-47.021 15.911-47.021.401-7.799-3.153-8.076-8.84-9.451-.356-.086-.703-.125-1.041-.121zM1541.719 35.904c-5.071.056-8.15 9.572-8.15 9.572s-14.496 23.687-15.911 47.021c-1.414 23.335 6.717 32.528 6.717 32.528s23.738 20.313 25.506 47.183c1.768 26.87-21.566 39.599-21.566 39.599s-2.153 19.405-3.92 42.386c-1.768 22.981 17.324 45.807 17.324 45.807h18.031s-19.092-22.826-17.324-45.807c1.768-22.981 3.92-42.386 3.92-42.386s23.334-12.729 21.566-39.599c-1.767-26.87-25.506-47.183-25.506-47.183s-8.131-9.193-6.716-32.528c1.414-23.334 15.91-47.021 15.91-47.021.402-7.799-3.152-8.076-8.84-9.451-.355-.086-.703-.125-1.041-.121zM1846.613 39.503c-5.071.057-8.15 9.573-8.15 9.573s-14.496 23.687-15.911 47.021c-1.414 23.335 6.717 32.528 6.717 32.528s22.908 18.433 24.676 45.303c1.768 26.87-21.566 39.599-21.566 39.599s-6.217 17.685-7.984 40.666c-1.768 22.981 17.324 45.807 17.324 45.807h18.031s-19.092-22.826-17.324-45.807c1.768-22.981 7.984-40.666 7.984-40.666s23.334-12.729 21.566-39.599c-1.767-26.87-24.676-45.303-24.676-45.303s-8.131-9.193-6.716-32.528c1.414-23.334 15.91-47.021 15.91-47.021.402-7.8-3.152-8.076-8.84-9.451-.355-.086-.703-.125-1.041-.122zM2150.256 42.182c-5.071.057-8.15 9.573-8.15 9.573s-14.496 23.687-15.911 47.021c-1.414 23.335 6.717 32.528 6.717 32.528s22.291 17.034 24.059 43.904c1.768 26.87-21.566 39.599-21.566 39.599s-9.243 16.405-11.01 39.386c-1.768 22.981 17.324 45.807 17.324 45.807h18.031s-19.092-22.826-17.324-45.807c1.768-22.981 11.01-39.386 11.01-39.386s23.334-12.729 21.566-39.599c-1.767-26.87-24.059-43.904-24.059-43.904s-8.131-9.193-6.716-32.528c1.414-23.334 15.91-47.021 15.91-47.021.402-7.8-3.152-8.076-8.84-9.451-.355-.086-.703-.125-1.041-.122zM2452.9 44.126c-5.071.057-8.15 9.573-8.15 9.573s-14.496 23.687-15.911 47.021c-1.414 23.335 6.717 32.528 6.717 32.528s21.843 16.019 23.611 42.889c1.768 26.87-21.566 39.599-21.566 39.599s-11.439 15.476-13.206 38.457c-1.768 22.981 17.324 45.807 17.324 45.807h18.031s-19.092-22.826-17.324-45.807c1.768-22.981 13.206-38.457 13.206-38.457s23.334-12.729 21.566-39.599c-1.767-26.87-23.611-42.889-23.611-42.889s-8.131-9.193-6.716-32.528c1.414-23.334 15.91-47.021 15.91-47.021.402-7.8-3.152-8.076-8.84-9.451-.355-.086-.703-.125-1.041-.122zM2754.826 45.543c-5.071.057-8.15 9.573-8.15 9.573s-14.496 23.687-15.911 47.021c-1.414 23.335 6.717 32.528 6.717 32.528s21.517 15.279 23.285 42.149c1.768 26.87-21.566 39.599-21.566 39.599s-13.039 14.799-14.806 37.78c-1.768 22.981 17.324 45.807 17.324 45.807h18.031s-19.092-22.826-17.324-45.807c1.768-22.981 14.806-37.78 14.806-37.78s23.334-12.729 21.566-39.599c-1.767-26.87-23.285-42.149-23.285-42.149s-8.131-9.193-6.716-32.528c1.414-23.334 15.91-47.021 15.91-47.021.402-7.8-3.152-8.076-8.84-9.451-.355-.086-.703-.125-1.041-.122z" />
  <path
     id="path2-9"
     d="m 79.4971,25.941018 c -5.072,0.056 -8.151,9.572 -8.151,9.572 0,0 -14.496,23.687 -15.91,47.021 -1.414,23.335002 6.717,32.528002 6.717,32.528002 0,0 26.162001,25.809 27.930001,52.679 1.768,26.87 -21.566001,39.599 -21.566001,39.599 0,0 9.736,24.435 7.969,47.416 -1.768,22.981 17.324,45.807 17.324,45.807 h 18.031 c 0,0 -19.092,-22.826 -17.324,-45.807 1.768,-22.981 -7.969,-47.416 -7.969,-47.416 0,0 23.334,-12.729 21.566,-39.599 -1.767,-26.87 -27.93,-52.679 -27.93,-52.679 0,0 -8.131,-9.193 -6.717,-32.528002 1.415,-23.334 15.911001,-47.021 15.911001,-47.021 0.401,-7.799 -3.153001,-8.076 -8.840001,-9.451 -0.356,-0.086 -0.703,-0.125 -1.041,-0.121 z m 300.33301,0.245 c -5.072,0.056 -8.151,9.572 -8.151,9.572 0,0 -14.496,23.687 -15.91,47.021 -1.414,23.335002 6.717,32.528002 6.717,32.528002 0,0 26.106,25.681 27.874,52.551 1.768,26.87 -21.566,39.599 -21.566,39.599 0,0 9.459,24.318 7.692,47.299 -1.768,22.981 17.324,45.807 17.324,45.807 h 18.031 c 0,0 -19.092,-22.826 -17.324,-45.807 1.768,-22.981 -7.692,-47.299 -7.692,-47.299 0,0 23.334,-12.729 21.566,-39.599 -1.767,-26.87 -27.874,-52.551 -27.874,-52.551 0,0 -8.131,-9.193 -6.717,-32.528002 1.415,-23.334 15.911,-47.021 15.911,-47.021 0.401,-7.799 -3.153,-8.076 -8.84,-9.451 -0.356,-0.086 -0.703,-0.125 -1.041,-0.121 z m 301.23002,0.904 c -5.072,0.056 -8.151,9.572 -8.151,9.572 0,0 -14.49602,23.687 -15.91002,47.021 -1.414,23.335002 6.717,32.528002 6.717,32.528002 0,0 25.89702,25.209 27.66502,52.079 1.768,26.87 -21.566,39.599 -21.566,39.599 0,0 8.438,23.886 6.671,46.867 -1.768,22.981 17.324,45.807 17.324,45.807 h 18.031 c 0,0 -19.092,-22.826 -17.324,-45.807 1.768,-22.981 -6.671,-46.867 -6.671,-46.867 0,0 23.334,-12.729 21.566,-39.599 -1.767,-26.87 -27.665,-52.079 -27.665,-52.079 0,0 -8.131,-9.193 -6.717,-32.528002 1.415,-23.334 15.911,-47.021 15.911,-47.021 0.401,-7.799 -3.153,-8.076 -8.84,-9.451 -0.356,-0.086 -0.703,-0.125 -1.041,-0.121 z m 302.63,1.934 c -5.072,0.057 -8.151,9.573 -8.151,9.573 0,0 -14.496,23.687 -15.91,47.021 -1.414,23.335002 6.717,32.528002 6.717,32.528002 0,0 25.45197,24.198 27.21997,51.068 1.768,26.87 -21.56597,39.599 -21.56597,39.599 0,0 6.253,22.962 4.486,45.943 -1.768,22.981 17.32397,45.807 17.32397,45.807 h 18.031 c 0,0 -19.092,-22.826 -17.324,-45.807 1.768,-22.981 -4.486,-45.943 -4.486,-45.943 0,0 23.334,-12.729 21.566,-39.599 -1.767,-26.87 -27.21997,-51.068 -27.21997,-51.068 0,0 -8.131,-9.193 -6.717,-32.528002 1.415,-23.334 15.91097,-47.021 15.91097,-47.021 0.401,-7.8 -3.153,-8.076 -8.83997,-9.451 -0.356,-0.086 -0.703,-0.125 -1.041,-0.122 z m 304.51087,3.318 c -5.072,0.056 -8.151,9.572 -8.151,9.572 0,0 -14.496,23.687 -15.91,47.021 -1.414,23.335002 6.717,32.528002 6.717,32.528002 0,0 24.687,22.467 26.455,49.337 1.768,26.87 -21.566,39.599 -21.566,39.599 0,0 2.507,21.376 0.74,44.357 -1.768,22.981 17.324,45.807 17.324,45.807 h 18.031 c 0,0 -19.092,-22.826 -17.324,-45.807 1.768,-22.981 -0.74,-44.357 -0.74,-44.357 0,0 23.334,-12.729 21.566,-39.599 -1.767,-26.87 -26.455,-49.337 -26.455,-49.337 0,0 -8.131,-9.193 -6.717,-32.528002 1.415,-23.334 15.911,-47.021 15.911,-47.021 0.401,-7.799 -3.153,-8.076 -8.84,-9.451 -0.356,-0.086 -0.703,-0.125 -1.041,-0.121 z m 305.609,4.125 c -5.071,0.056 -8.15,9.572 -8.15,9.572 0,0 -14.496,23.687 -15.911,47.021 -1.414,23.335002 6.717,32.528002 6.717,32.528002 0,0 23.738,20.313 25.506,47.183 1.768,26.87 -21.566,39.599 -21.566,39.599 0,0 -2.153,19.405 -3.92,42.386 -1.768,22.981 17.324,45.807 17.324,45.807 h 18.031 c 0,0 -19.092,-22.826 -17.324,-45.807 1.768,-22.981 3.92,-42.386 3.92,-42.386 0,0 23.334,-12.729 21.566,-39.599 -1.767,-26.87 -25.506,-47.183 -25.506,-47.183 0,0 -8.131,-9.193 -6.716,-32.528002 1.414,-23.334 15.91,-47.021 15.91,-47.021 0.402,-7.799 -3.152,-8.076 -8.84,-9.451 -0.355,-0.086 -0.703,-0.125 -1.041,-0.121 z m 304.894,3.599 c -5.071,0.057 -8.15,9.573 -8.15,9.573 0,0 -14.496,23.687 -15.911,47.020998 -1.414,23.335004 6.717,32.528004 6.717,32.528004 0,0 22.908,18.433 24.676,45.303 1.768,26.87 -21.566,39.599 -21.566,39.599 0,0 -6.217,17.685 -7.984,40.666 -1.768,22.981 17.324,45.807 17.324,45.807 h 18.031 c 0,0 -19.092,-22.826 -17.324,-45.807 1.768,-22.981 7.984,-40.666 7.984,-40.666 0,0 23.334,-12.729 21.566,-39.599 -1.767,-26.87 -24.676,-45.303 -24.676,-45.303 0,0 -8.131,-9.193 -6.716,-32.528004 1.414,-23.333998 15.91,-47.020998 15.91,-47.020998 0.402,-7.8 -3.152,-8.076 -8.84,-9.451 -0.355,-0.086 -0.703,-0.125 -1.041,-0.122 z m 303.643,2.679 c -5.071,0.057 -8.15,9.573 -8.15,9.573 0,0 -14.496,23.687 -15.911,47.020998 -1.414,23.335004 6.717,32.528004 6.717,32.528004 0,0 22.291,17.034 24.059,43.904 1.768,26.87 -21.566,39.599 -21.566,39.599 0,0 -9.243,16.405 -11.01,39.386 -1.768,22.981 17.324,45.807 17.324,45.807 h 18.031 c 0,0 -19.092,-22.826 -17.324,-45.807 1.768,-22.981 11.01,-39.386 11.01,-39.386 0,0 23.334,-12.729 21.566,-39.599 -1.767,-26.87 -24.059,-43.904 -24.059,-43.904 0,0 -8.131,-9.193 -6.716,-32.528004 1.414,-23.333998 15.91,-47.020998 15.91,-47.020998 0.402,-7.8 -3.152,-8.076 -8.84,-9.451 -0.355,-0.086 -0.703,-0.125 -1.041,-0.122 z m 302.644,1.944 c -5.071,0.057 -8.15,9.573 -8.15,9.573 0,0 -14.496,23.687 -15.911,47.021002 -1.414,23.335 6.717,32.528 6.717,32.528 0,0 21.843,16.019 23.611,42.889 1.768,26.87 -21.566,39.599 -21.566,39.599 0,0 -11.439,15.476 -13.206,38.457 -1.768,22.981 17.324,45.807 17.324,45.807 h 18.031 c 0,0 -19.092,-22.826 -17.324,-45.807 1.768,-22.981 13.206,-38.457 13.206,-38.457 0,0 23.334,-12.729 21.566,-39.599 -1.767,-26.87 -23.611,-42.889 -23.611,-42.889 0,0 -8.131,-9.193 -6.716,-32.528 1.414,-23.334002 15.91,-47.021002 15.91,-47.021002 0.402,-7.8 -3.152,-8.076 -8.84,-9.451 -0.355,-0.086 -0.703,-0.125 -1.041,-0.122 z m 301.926,1.417 c -5.071,0.057 -8.15,9.573 -8.15,9.573 0,0 -14.496,23.687 -15.911,47.021002 -1.414,23.335 6.717,32.528 6.717,32.528 0,0 21.517,15.279 23.285,42.149 1.768,26.87 -21.566,39.599 -21.566,39.599 0,0 -13.039,14.799 -14.806,37.78 -1.768,22.981 17.324,45.807 17.324,45.807 h 18.031 c 0,0 -19.092,-22.826 -17.324,-45.807 1.768,-22.981 14.806,-37.78 14.806,-37.78 0,0 23.334,-12.729 21.566,-39.599 -1.767,-26.87 -23.285,-42.149 -23.285,-42.149 0,0 -8.131,-9.193 -6.716,-32.528 1.414,-23.334002 15.91,-47.021002 15.91,-47.021002 0.402,-7.8 -3.152,-8.076 -8.84,-9.451 -0.355,-0.086 -0.703,-0.125 -1.041,-0.122 z"
     style="fill:#005500" />
  <path
     id="path2-1"
     d="m 133.65876,26.410941 c -5.072,0.056 -8.151,9.572 -8.151,9.572 0,0 -14.496,23.687 -15.91,47.021 -1.414,23.334999 6.717,32.527999 6.717,32.527999 0,0 26.162,25.809 27.93,52.679 1.768,26.87 -21.566,39.599 -21.566,39.599 0,0 9.736,24.435 7.969,47.416 -1.768,22.981 17.324,45.807 17.324,45.807 h 18.031 c 0,0 -19.092,-22.826 -17.324,-45.807 1.768,-22.981 -7.969,-47.416 -7.969,-47.416 0,0 23.334,-12.729 21.566,-39.599 -1.767,-26.87 -27.93,-52.679 -27.93,-52.679 0,0 -8.131,-9.193 -6.717,-32.527999 1.415,-23.334 15.911,-47.021 15.911,-47.021 0.401,-7.799 -3.153,-8.076 -8.84,-9.451 -0.356,-0.086 -0.703,-0.125 -1.041,-0.121 z m 300.33301,0.245 c -5.072,0.056 -8.151,9.572 -8.151,9.572 0,0 -14.496,23.687 -15.91,47.021 -1.414,23.334999 6.717,32.527999 6.717,32.527999 0,0 26.106,25.681 27.874,52.551 1.768,26.87 -21.566,39.599 -21.566,39.599 0,0 9.459,24.318 7.692,47.299 -1.768,22.981 17.324,45.807 17.324,45.807 h 18.031 c 0,0 -19.092,-22.826 -17.324,-45.807 1.768,-22.981 -7.692,-47.299 -7.692,-47.299 0,0 23.334,-12.729 21.566,-39.599 -1.767,-26.87 -27.874,-52.551 -27.874,-52.551 0,0 -8.131,-9.193 -6.717,-32.527999 1.415,-23.334 15.911,-47.021 15.911,-47.021 0.401,-7.799 -3.153,-8.076 -8.84,-9.451 -0.356,-0.086 -0.703,-0.125 -1.041,-0.121 z m 301.23001,0.904 c -5.072,0.056 -8.151,9.572 -8.151,9.572 0,0 -14.496,23.687 -15.91,47.021 -1.414,23.334999 6.717,32.527999 6.717,32.527999 0,0 25.897,25.209 27.665,52.079 1.768,26.87 -21.566,39.599 -21.566,39.599 0,0 8.438,23.886 6.671,46.867 -1.768,22.981 17.324,45.807 17.324,45.807 h 18.031 c 0,0 -19.092,-22.826 -17.324,-45.807 1.768,-22.981 -6.671,-46.867 -6.671,-46.867 0,0 23.334,-12.729 21.566,-39.599 -1.767,-26.87 -27.665,-52.079 -27.665,-52.079 0,0 -8.131,-9.193 -6.717,-32.527999 1.415,-23.334 15.911,-47.021 15.911,-47.021 0.401,-7.799 -3.153,-8.076 -8.84,-9.451 -0.356,-0.086 -0.703,-0.125 -1.041,-0.121 z m 302.63002,1.934 c -5.072,0.057 -8.151,9.573 -8.151,9.573 0,0 -14.496,23.687 -15.91,47.021 -1.414,23.334999 6.717,32.527999 6.717,32.527999 0,0 25.452,24.198 27.22,51.068 1.768,26.87 -21.566,39.599 -21.566,39.599 0,0 6.253,22.962 4.486,45.943 -1.768,22.981 17.324,45.807 17.324,45.807 h 18.031 c 0,0 -19.092,-22.826 -17.324,-45.807 1.768,-22.981 -4.486,-45.943 -4.486,-45.943 0,0 23.334,-12.729 21.566,-39.599 -1.767,-26.87 -27.22,-51.068 -27.22,-51.068 0,0 -8.131,-9.193 -6.717,-32.527999 1.415,-23.334 15.911,-47.021 15.911,-47.021 0.401,-7.8 -3.153,-8.076 -8.84,-9.451 -0.356,-0.086 -0.703,-0.125 -1.041,-0.122 z m 304.5109,3.318 c -5.072,0.056 -8.151,9.572 -8.151,9.572 0,0 -14.496,23.687 -15.91,47.021 -1.414,23.334999 6.717,32.527999 6.717,32.527999 0,0 24.687,22.467 26.455,49.337 1.768,26.87 -21.566,39.599 -21.566,39.599 0,0 2.507,21.376 0.74,44.357 -1.768,22.981 17.324,45.807 17.324,45.807 h 18.031 c 0,0 -19.092,-22.826 -17.324,-45.807 1.768,-22.981 -0.74,-44.357 -0.74,-44.357 0,0 23.334,-12.729 21.566,-39.599 -1.767,-26.87 -26.455,-49.337 -26.455,-49.337 0,0 -8.131,-9.193 -6.717,-32.527999 1.415,-23.334 15.911,-47.021 15.911,-47.021 0.401,-7.799 -3.153,-8.076 -8.84,-9.451 -0.356,-0.086 -0.703,-0.125 -1.041,-0.121 z m 305.609,4.125 c -5.071,0.056 -8.15,9.572 -8.15,9.572 0,0 -14.496,23.687 -15.911,47.021 -1.414,23.334999 6.717,32.527999 6.717,32.527999 0,0 23.738,20.313 25.506,47.183 1.768,26.87 -21.566,39.599 -21.566,39.599 0,0 -2.153,19.405 -3.92,42.386 -1.768,22.981 17.324,45.807 17.324,45.807 h 18.031 c 0,0 -19.092,-22.826 -17.324,-45.807 1.768,-22.981 3.92,-42.386 3.92,-42.386 0,0 23.334,-12.729 21.566,-39.599 -1.767,-26.87 -25.506,-47.183 -25.506,-47.183 0,0 -8.131,-9.193 -6.716,-32.527999 1.414,-23.334 15.91,-47.021 15.91,-47.021 0.402,-7.799 -3.152,-8.076 -8.84,-9.451 -0.355,-0.086 -0.703,-0.125 -1.041,-0.121 z m 304.894,3.599 c -5.071,0.057 -8.15,9.573 -8.15,9.573 0,0 -14.496,23.687 -15.911,47.021 -1.414,23.334999 6.717,32.527999 6.717,32.527999 0,0 22.908,18.433 24.676,45.303 1.768,26.87 -21.566,39.599 -21.566,39.599 0,0 -6.217,17.685 -7.984,40.666 -1.768,22.981 17.324,45.807 17.324,45.807 h 18.031 c 0,0 -19.092,-22.826 -17.324,-45.807 1.768,-22.981 7.984,-40.666 7.984,-40.666 0,0 23.334,-12.729 21.566,-39.599 -1.767,-26.87 -24.676,-45.303 -24.676,-45.303 0,0 -8.131,-9.193 -6.716,-32.527999 1.414,-23.334 15.91,-47.021 15.91,-47.021 0.402,-7.8 -3.152,-8.076 -8.84,-9.451 -0.355,-0.086 -0.703,-0.125 -1.041,-0.122 z m 303.643,2.679 c -5.071,0.057 -8.15,9.573 -8.15,9.573 0,0 -14.496,23.687 -15.911,47.021 -1.414,23.334999 6.717,32.527999 6.717,32.527999 0,0 22.291,17.034 24.059,43.904 1.768,26.87 -21.566,39.599 -21.566,39.599 0,0 -9.243,16.405 -11.01,39.386 -1.768,22.981 17.324,45.807 17.324,45.807 h 18.031 c 0,0 -19.092,-22.826 -17.324,-45.807 1.768,-22.981 11.01,-39.386 11.01,-39.386 0,0 23.334,-12.729 21.566,-39.599 -1.767,-26.87 -24.059,-43.904 -24.059,-43.904 0,0 -8.131,-9.193 -6.716,-32.527999 1.414,-23.334 15.91,-47.021 15.91,-47.021 0.402,-7.8 -3.152,-8.076 -8.84,-9.451 -0.355,-0.086 -0.703,-0.125 -1.041,-0.122 z m 302.644,1.944 c -5.071,0.057 -8.15,9.573 -8.15,9.573 0,0 -14.496,23.687 -15.911,47.020999 -1.414,23.335 6.717,32.528 6.717,32.528 0,0 21.843,16.019 23.611,42.889 1.768,26.87 -21.566,39.599 -21.566,39.599 0,0 -11.439,15.476 -13.206,38.457 -1.768,22.981 17.324,45.807 17.324,45.807 h 18.031 c 0,0 -19.092,-22.826 -17.324,-45.807 1.768,-22.981 13.206,-38.457 13.206,-38.457 0,0 23.334,-12.729 21.566,-39.599 -1.767,-26.87 -23.611,-42.889 -23.611,-42.889 0,0 -8.131,-9.193 -6.716,-32.528 1.414,-23.333999 15.91,-47.020999 15.91,-47.020999 0.402,-7.8 -3.152,-8.076 -8.84,-9.451 -0.355,-0.086 -0.703,-0.125 -1.041,-0.122 z m 301.926,1.417 c -5.071,0.057 -8.15,9.573 -8.15,9.573 0,0 -14.496,23.687 -15.911,47.020999 -1.414,23.335 6.717,32.528 6.717,32.528 0,0 21.517,15.279 23.285,42.149 1.768,26.87 -21.566,39.599 -21.566,39.599 0,0 -13.039,14.799 -14.806,37.78 -1.768,22.981 17.324,45.807 17.324,45.807 h 18.031 c 0,0 -19.092,-22.826 -17.324,-45.807 1.768,-22.981 14.806,-37.78 14.806,-37.78 0,0 23.334,-12.729 21.566,-39.599 -1.767,-26.87 -23.285,-42.149 -23.285,-42.149 0,0 -8.131,-9.193 -6.716,-32.528 1.414,-23.333999 15.91,-47.020999 15.91,-47.020999 0.402,-7.8 -3.152,-8.076 -8.84,-9.451 -0.355,-0.086 -0.703,-0.125 -1.041,-0.122 z"
     style="fill:#005500" />
  <path
     id="path2-0"
     d="m 189.94072,25.471098 c -5.072,0.056 -8.151,9.572 -8.151,9.572 0,0 -14.496,23.687 -15.91,47.021 -1.414,23.335002 6.717,32.528002 6.717,32.528002 0,0 26.162,25.809 27.93,52.679 1.768,26.87 -21.566,39.599 -21.566,39.599 0,0 9.736,24.435 7.969,47.416 -1.768,22.981 17.324,45.807 17.324,45.807 h 18.031 c 0,0 -19.092,-22.826 -17.324,-45.807 1.768,-22.981 -7.969,-47.416 -7.969,-47.416 0,0 23.334,-12.729 21.566,-39.599 -1.767,-26.87 -27.93,-52.679 -27.93,-52.679 0,0 -8.131,-9.193 -6.717,-32.528002 1.415,-23.334 15.911,-47.021 15.911,-47.021 0.401,-7.799 -3.153,-8.076 -8.84,-9.451 -0.356,-0.086 -0.703,-0.125 -1.041,-0.121 z m 300.333,0.245 c -5.072,0.056 -8.151,9.572 -8.151,9.572 0,0 -14.496,23.687 -15.91,47.021 -1.414,23.335002 6.717,32.528002 6.717,32.528002 0,0 26.106,25.681 27.874,52.551 1.768,26.87 -21.566,39.599 -21.566,39.599 0,0 9.459,24.318 7.692,47.299 -1.768,22.981 17.324,45.807 17.324,45.807 h 18.031 c 0,0 -19.092,-22.826 -17.324,-45.807 1.768,-22.981 -7.692,-47.299 -7.692,-47.299 0,0 23.334,-12.729 21.566,-39.599 -1.767,-26.87 -27.874,-52.551 -27.874,-52.551 0,0 -8.131,-9.193 -6.717,-32.528002 1.415,-23.334 15.911,-47.021 15.911,-47.021 0.401,-7.799 -3.153,-8.076 -8.84,-9.451 -0.356,-0.086 -0.703,-0.125 -1.041,-0.121 z m 301.23,0.904 c -5.072,0.056 -8.151,9.572 -8.151,9.572 0,0 -14.496,23.687 -15.91,47.021 -1.414,23.335002 6.717,32.528002 6.717,32.528002 0,0 25.897,25.209 27.665,52.079 1.768,26.87 -21.566,39.599 -21.566,39.599 0,0 8.438,23.886 6.671,46.867 -1.768,22.981 17.324,45.807 17.324,45.807 h 18.031 c 0,0 -19.092,-22.826 -17.324,-45.807 1.768,-22.981 -6.671,-46.867 -6.671,-46.867 0,0 23.334,-12.729 21.566,-39.599 -1.767,-26.87 -27.665,-52.079 -27.665,-52.079 0,0 -8.131,-9.193 -6.717,-32.528002 1.415,-23.334 15.911,-47.021 15.911,-47.021 0.401,-7.799 -3.153,-8.076 -8.84,-9.451 -0.356,-0.086 -0.703,-0.125 -1.041,-0.121 z m 302.63008,1.934 c -5.072,0.057 -8.151,9.573 -8.151,9.573 0,0 -14.496,23.687 -15.91,47.021 -1.414,23.335002 6.717,32.528002 6.717,32.528002 0,0 25.452,24.198 27.22,51.068 1.768,26.87 -21.566,39.599 -21.566,39.599 0,0 6.253,22.962 4.486,45.943 -1.768,22.981 17.324,45.807 17.324,45.807 h 18.031 c 0,0 -19.092,-22.826 -17.324,-45.807 1.768,-22.981 -4.486,-45.943 -4.486,-45.943 0,0 23.334,-12.729 21.566,-39.599 -1.767,-26.87 -27.22,-51.068 -27.22,-51.068 0,0 -8.131,-9.193 -6.717,-32.528002 1.415,-23.334 15.911,-47.021 15.911,-47.021 0.401,-7.8 -3.153,-8.076 -8.84,-9.451 -0.356,-0.086 -0.703,-0.125 -1.041,-0.122 z m 304.511,3.318 c -5.072,0.056 -8.151,9.572 -8.151,9.572 0,0 -14.496,23.687 -15.91,47.021 -1.414,23.335002 6.717,32.528002 6.717,32.528002 0,0 24.687,22.467 26.455,49.337 1.768,26.87 -21.566,39.599 -21.566,39.599 0,0 2.507,21.376 0.74,44.357 -1.768,22.981 17.324,45.807 17.324,45.807 h 18.031 c 0,0 -19.092,-22.826 -17.324,-45.807 1.768,-22.981 -0.74,-44.357 -0.74,-44.357 0,0 23.334,-12.729 21.566,-39.599 -1.767,-26.87 -26.455,-49.337 -26.455,-49.337 0,0 -8.131,-9.193 -6.717,-32.528002 1.415,-23.334 15.911,-47.021 15.911,-47.021 0.401,-7.799 -3.153,-8.076 -8.84,-9.451 -0.356,-0.086 -0.703,-0.125 -1.041,-0.121 z m 305.609,4.125 c -5.071,0.056 -8.15,9.572 -8.15,9.572 0,0 -14.496,23.687 -15.911,47.021 -1.414,23.335002 6.717,32.528002 6.717,32.528002 0,0 23.738,20.313 25.506,47.183 1.768,26.87 -21.566,39.599 -21.566,39.599 0,0 -2.153,19.405 -3.92,42.386 -1.768,22.981 17.324,45.807 17.324,45.807 h 18.031 c 0,0 -19.092,-22.826 -17.324,-45.807 1.768,-22.981 3.92,-42.386 3.92,-42.386 0,0 23.334,-12.729 21.566,-39.599 -1.767,-26.87 -25.506,-47.183 -25.506,-47.183 0,0 -8.131,-9.193 -6.716,-32.528002 1.414,-23.334 15.91,-47.021 15.91,-47.021 0.402,-7.799 -3.152,-8.076 -8.84,-9.451 -0.355,-0.086 -0.703,-0.125 -1.041,-0.121 z m 304.894,3.599 c -5.071,0.057 -8.15,9.573 -8.15,9.573 0,0 -14.496,23.687 -15.911,47.021 -1.414,23.335002 6.717,32.528002 6.717,32.528002 0,0 22.908,18.433 24.676,45.303 1.768,26.87 -21.566,39.599 -21.566,39.599 0,0 -6.217,17.685 -7.984,40.666 -1.768,22.981 17.324,45.807 17.324,45.807 h 18.031 c 0,0 -19.092,-22.826 -17.324,-45.807 1.768,-22.981 7.984,-40.666 7.984,-40.666 0,0 23.334,-12.729 21.566,-39.599 -1.767,-26.87 -24.676,-45.303 -24.676,-45.303 0,0 -8.131,-9.193 -6.716,-32.528002 1.414,-23.334 15.91,-47.021 15.91,-47.021 0.402,-7.8 -3.152,-8.076 -8.84,-9.451 -0.355,-0.086 -0.703,-0.125 -1.041,-0.122 z m 303.643,2.679 c -5.071,0.057 -8.15,9.573 -8.15,9.573 0,0 -14.496,23.687 -15.911,47.021003 -1.414,23.334999 6.717,32.527999 6.717,32.527999 0,0 22.291,17.034 24.059,43.904 1.768,26.87 -21.566,39.599 -21.566,39.599 0,0 -9.243,16.405 -11.01,39.386 -1.768,22.981 17.324,45.807 17.324,45.807 h 18.031 c 0,0 -19.092,-22.826 -17.324,-45.807 1.768,-22.981 11.01,-39.386 11.01,-39.386 0,0 23.334,-12.729 21.566,-39.599 -1.767,-26.87 -24.059,-43.904 -24.059,-43.904 0,0 -8.131,-9.193 -6.716,-32.527999 1.414,-23.334003 15.91,-47.021003 15.91,-47.021003 0.402,-7.8 -3.152,-8.076 -8.84,-9.451 -0.355,-0.086 -0.703,-0.125 -1.041,-0.122 z m 302.644,1.944 c -5.071,0.057 -8.15,9.573 -8.15,9.573 0,0 -14.496,23.687 -15.911,47.021002 -1.414,23.335 6.717,32.528 6.717,32.528 0,0 21.843,16.019 23.611,42.889 1.768,26.87 -21.566,39.599 -21.566,39.599 0,0 -11.439,15.476 -13.206,38.457 -1.768,22.981 17.324,45.807 17.324,45.807 h 18.031 c 0,0 -19.092,-22.826 -17.324,-45.807 1.768,-22.981 13.206,-38.457 13.206,-38.457 0,0 23.334,-12.729 21.566,-39.599 -1.767,-26.87 -23.611,-42.889 -23.611,-42.889 0,0 -8.131,-9.193 -6.716,-32.528 1.414,-23.334002 15.91,-47.021002 15.91,-47.021002 0.402,-7.8 -3.152,-8.076 -8.84,-9.451 -0.355,-0.086 -0.703,-0.125 -1.041,-0.122 z m 301.926,1.417 c -5.071,0.057 -8.15,9.573 -8.15,9.573 0,0 -14.496,23.687 -15.911,47.021002 -1.414,23.335 6.717,32.528 6.717,32.528 0,0 21.517,15.279 23.285,42.149 1.768,26.87 -21.566,39.599 -21.566,39.599 0,0 -13.039,14.799 -14.806,37.78 -1.768,22.981 17.324,45.807 17.324,45.807 h 18.031 c 0,0 -19.092,-22.826 -17.324,-45.807 1.768,-22.981 14.806,-37.78 14.806,-37.78 0,0 23.334,-12.729 21.566,-39.599 -1.767,-26.87 -23.285,-42.149 -23.285,-42.149 0,0 -8.131,-9.193 -6.716,-32.528 1.414,-23.334002 15.91,-47.021002 15.91,-47.021002 0.402,-7.8 -3.152,-8.076 -8.84,-9.451 -0.355,-0.086 -0.703,-0.125 -1.041,-0.122 z"
     style="fill:#005500" />
  <path
     id="path2-8"
     d="m 243.04227,25.94102 c -5.072,0.056 -8.151,9.572 -8.151,9.572 0,0 -14.496,23.687 -15.91,47.021 -1.414,23.335 6.717,32.528 6.717,32.528 0,0 26.162,25.809 27.93,52.679 1.768,26.87 -21.566,39.599 -21.566,39.599 0,0 9.736,24.435 7.969,47.416 -1.768,22.981 17.324,45.807 17.324,45.807 h 18.031 c 0,0 -19.092,-22.826 -17.324,-45.807 1.768,-22.981 -7.969,-47.416 -7.969,-47.416 0,0 23.334,-12.729 21.566,-39.599 -1.767,-26.87 -27.93,-52.679 -27.93,-52.679 0,0 -8.131,-9.193 -6.717,-32.528 1.415,-23.334 15.911,-47.021 15.911,-47.021 0.401,-7.799 -3.153,-8.076 -8.84,-9.451 -0.356,-0.086 -0.703,-0.125 -1.041,-0.121 z m 300.333,0.245 c -5.072,0.056 -8.151,9.572 -8.151,9.572 0,0 -14.496,23.687 -15.91,47.021 -1.414,23.335 6.717,32.528 6.717,32.528 0,0 26.106,25.681 27.874,52.551 1.768,26.87 -21.566,39.599 -21.566,39.599 0,0 9.459,24.318 7.692,47.299 -1.768,22.981 17.324,45.807 17.324,45.807 h 18.031 c 0,0 -19.092,-22.826 -17.324,-45.807 1.768,-22.981 -7.692,-47.299 -7.692,-47.299 0,0 23.334,-12.729 21.566,-39.599 -1.767,-26.87 -27.874,-52.551 -27.874,-52.551 0,0 -8.131,-9.193 -6.717,-32.528 1.415,-23.334 15.911,-47.021 15.911,-47.021 0.401,-7.799 -3.153,-8.076 -8.84,-9.451 -0.356,-0.086 -0.703,-0.125 -1.041,-0.121 z m 301.23,0.904 c -5.072,0.056 -8.151,9.572 -8.151,9.572 0,0 -14.496,23.687 -15.91,47.021 -1.414,23.335 6.717,32.528 6.717,32.528 0,0 25.897,25.209 27.665,52.079 1.768,26.87 -21.566,39.599 -21.566,39.599 0,0 8.438,23.886 6.671,46.867 -1.768,22.981 17.324,45.807 17.324,45.807 h 18.031 c 0,0 -19.092,-22.826 -17.324,-45.807 1.768,-22.981 -6.671,-46.867 -6.671,-46.867 0,0 23.334,-12.729 21.566,-39.599 -1.767,-26.87 -27.665,-52.079 -27.665,-52.079 0,0 -8.131,-9.193 -6.717,-32.528 1.415,-23.334 15.911,-47.021 15.911,-47.021 0.401,-7.799 -3.153,-8.076 -8.84,-9.451 -0.356,-0.086 -0.703,-0.125 -1.041,-0.121 z m 302.63003,1.934 c -5.072,0.057 -8.151,9.573 -8.151,9.573 0,0 -14.496,23.687 -15.91,47.021 -1.414,23.335 6.717,32.528 6.717,32.528 0,0 25.452,24.198 27.22,51.068 1.768,26.87 -21.566,39.599 -21.566,39.599 0,0 6.253,22.962 4.486,45.943 -1.768,22.981 17.324,45.807 17.324,45.807 h 18.031 c 0,0 -19.092,-22.826 -17.324,-45.807 1.768,-22.981 -4.486,-45.943 -4.486,-45.943 0,0 23.334,-12.729 21.566,-39.599 -1.767,-26.87 -27.22,-51.068 -27.22,-51.068 0,0 -8.131,-9.193 -6.717,-32.528 1.415,-23.334 15.911,-47.021 15.911,-47.021 0.401,-7.8 -3.153,-8.076 -8.84,-9.451 -0.356,-0.086 -0.703,-0.125 -1.041,-0.122 z m 304.5109,3.318 c -5.072,0.056 -8.151,9.572 -8.151,9.572 0,0 -14.496,23.687 -15.91,47.021 -1.414,23.335 6.717,32.528 6.717,32.528 0,0 24.687,22.467 26.455,49.337 1.768,26.87 -21.566,39.599 -21.566,39.599 0,0 2.507,21.376 0.74,44.357 -1.768,22.981 17.324,45.807 17.324,45.807 h 18.031 c 0,0 -19.092,-22.826 -17.324,-45.807 1.768,-22.981 -0.74,-44.357 -0.74,-44.357 0,0 23.334,-12.729 21.566,-39.599 -1.767,-26.87 -26.455,-49.337 -26.455,-49.337 0,0 -8.131,-9.193 -6.717,-32.528 1.415,-23.334 15.911,-47.021 15.911,-47.021 0.401,-7.799 -3.153,-8.076 -8.84,-9.451 -0.356,-0.086 -0.703,-0.125 -1.041,-0.121 z m 305.609,4.125 c -5.071,0.056 -8.15,9.572 -8.15,9.572 0,0 -14.496,23.687 -15.911,47.021 -1.414,23.335 6.717,32.528 6.717,32.528 0,0 23.738,20.313 25.506,47.183 1.768,26.87 -21.566,39.599 -21.566,39.599 0,0 -2.153,19.405 -3.92,42.386 -1.768,22.981 17.324,45.807 17.324,45.807 h 18.031 c 0,0 -19.092,-22.826 -17.324,-45.807 1.768,-22.981 3.92,-42.386 3.92,-42.386 0,0 23.334,-12.729 21.566,-39.599 -1.767,-26.87 -25.506,-47.183 -25.506,-47.183 0,0 -8.131,-9.193 -6.716,-32.528 1.414,-23.334 15.91,-47.021 15.91,-47.021 0.402,-7.799 -3.152,-8.076 -8.84,-9.451 -0.355,-0.086 -0.703,-0.125 -1.041,-0.121 z m 304.894,3.599 c -5.071,0.057 -8.15,9.573 -8.15,9.573 0,0 -14.496,23.687 -15.911,47.021 -1.414,23.335 6.717,32.528 6.717,32.528 0,0 22.908,18.433 24.676,45.303 1.768,26.87 -21.566,39.599 -21.566,39.599 0,0 -6.217,17.685 -7.984,40.666 -1.768,22.981 17.324,45.807 17.324,45.807 h 18.031 c 0,0 -19.092,-22.826 -17.324,-45.807 1.768,-22.981 7.984,-40.666 7.984,-40.666 0,0 23.334,-12.729 21.566,-39.599 -1.767,-26.87 -24.676,-45.303 -24.676,-45.303 0,0 -8.131,-9.193 -6.716,-32.528 1.414,-23.334 15.91,-47.021 15.91,-47.021 0.402,-7.8 -3.152,-8.076 -8.84,-9.451 -0.355,-0.086 -0.703,-0.125 -1.041,-0.122 z m 303.643,2.679 c -5.071,0.057 -8.15,9.573 -8.15,9.573 0,0 -14.496,23.687 -15.911,47.020996 -1.414,23.335004 6.717,32.528004 6.717,32.528004 0,0 22.291,17.034 24.059,43.904 1.768,26.87 -21.566,39.599 -21.566,39.599 0,0 -9.243,16.405 -11.01,39.386 -1.768,22.981 17.324,45.807 17.324,45.807 h 18.031 c 0,0 -19.092,-22.826 -17.324,-45.807 1.768,-22.981 11.01,-39.386 11.01,-39.386 0,0 23.334,-12.729 21.566,-39.599 -1.767,-26.87 -24.059,-43.904 -24.059,-43.904 0,0 -8.131,-9.193 -6.716,-32.528004 1.414,-23.333996 15.91,-47.020996 15.91,-47.020996 0.402,-7.8 -3.152,-8.076 -8.84,-9.451 -0.355,-0.086 -0.703,-0.125 -1.041,-0.122 z m 302.644,1.944 c -5.071,0.057 -8.15,9.573 -8.15,9.573 0,0 -14.496,23.687 -15.911,47.021 -1.414,23.335 6.717,32.528 6.717,32.528 0,0 21.843,16.019 23.611,42.889 1.768,26.87 -21.566,39.599 -21.566,39.599 0,0 -11.439,15.476 -13.206,38.457 -1.768,22.981 17.324,45.807 17.324,45.807 h 18.031 c 0,0 -19.092,-22.826 -17.324,-45.807 1.768,-22.981 13.206,-38.457 13.206,-38.457 0,0 23.334,-12.729 21.566,-39.599 -1.767,-26.87 -23.611,-42.889 -23.611,-42.889 0,0 -8.131,-9.193 -6.716,-32.528 1.414,-23.334 15.91,-47.021 15.91,-47.021 0.402,-7.8 -3.152,-8.076 -8.84,-9.451 -0.355,-0.086 -0.703,-0.125 -1.041,-0.122 z m 301.926,1.417 c -5.071,0.057 -8.15,9.573 -8.15,9.573 0,0 -14.496,23.687 -15.911,47.021 -1.414,23.335 6.717,32.528 6.717,32.528 0,0 21.517,15.279 23.285,42.149 1.768,26.87 -21.566,39.599 -21.566,39.599 0,0 -13.039,14.799 -14.806,37.78 -1.768,22.981 17.324,45.807 17.324,45.807 h 18.031 c 0,0 -19.092,-22.826 -17.324,-45.807 1.768,-22.981 14.806,-37.78 14.806,-37.78 0,0 23.334,-12.729 21.566,-39.599 -1.767,-26.87 -23.285,-42.149 -23.285,-42.149 0,0 -8.131,-9.193 -6.716,-32.528 1.414,-23.334 15.91,-47.021 15.91,-47.021 0.402,-7.8 -3.152,-8.076 -8.84,-9.451 -0.355,-0.086 -0.703,-0.125 -1.041,-0.122 z"
     style="fill:#005500" />
     </g>
</svg>
